<svg version="1.1" id="Layer_1" xmlns="http://www.w3.org/2000/svg" xmlns:xlink="http://www.w3.org/1999/xlink" x="0px" y="0px"
	 width="100%" viewBox="0 0 512 512" enable-background="new 0 0 512 512" xml:space="preserve">
<path fill="#4ADE80" opacity="1.000000" stroke="none" 
	d="
M345.000000,513.000000 
	C230.027939,513.000000 115.555870,513.000000 1.041900,513.000000 
	C1.041900,342.402924 1.041900,171.805817 1.041900,1.104355 
	C171.555405,1.104355 342.110901,1.104355 512.833191,1.104355 
	C512.833191,171.666534 512.833191,342.333252 512.833191,513.000000 
	C457.139069,513.000000 401.319550,513.000000 345.000000,513.000000 
M227.992569,389.415619 
	C261.794403,390.636169 295.594971,391.893616 329.398773,393.057678 
	C341.578918,393.477081 341.582458,393.374603 345.689362,381.798187 
	C347.967468,375.376709 352.374268,372.007019 358.578827,371.942291 
	C365.032471,371.874969 369.619965,375.323761 371.962036,381.879272 
	C373.190125,385.316742 374.287354,388.849640 375.996216,392.043823 
	C376.729279,393.414093 378.834381,394.809967 380.373047,394.876495 
	C406.341339,395.999268 432.315033,397.027100 458.294983,397.838623 
	C478.554718,398.471466 492.980103,384.439240 492.989838,364.290619 
	C493.022614,296.296448 493.027191,228.302277 492.986359,160.308136 
	C492.974701,140.893387 478.798157,126.579926 459.516052,127.106308 
	C426.371399,128.011139 393.231567,129.196167 360.106659,130.650101 
	C352.095642,131.001740 345.698975,130.123352 343.935699,121.121292 
	C336.149475,121.121292 328.833374,121.121292 321.547211,121.121292 
	C319.753693,128.836105 316.882019,131.866119 311.307495,132.019257 
	C305.799927,132.170563 302.825867,129.456833 300.466583,121.789146 
	C292.714813,122.278893 284.847748,122.775932 277.025696,123.270119 
	C274.292175,132.038101 271.978027,133.656036 262.631805,133.959671 
	C219.664444,135.355637 176.699966,136.844284 133.729782,138.145096 
	C130.149704,138.253479 128.547348,139.342636 127.517685,142.839111 
	C125.272736,150.462418 120.743988,153.948456 114.089455,154.064163 
	C107.082993,154.185989 102.590446,150.844360 100.013641,143.048920 
	C99.116432,140.334671 97.877220,139.546143 95.038872,139.670502 
	C81.389526,140.268463 67.730476,140.665176 54.072186,141.034164 
	C34.207836,141.570847 21.035145,154.900513 21.006020,174.693695 
	C20.970461,198.858231 20.997225,223.022858 20.997425,247.187454 
	C20.997711,281.684509 20.932608,316.181732 21.025524,350.678528 
	C21.074808,368.976379 34.428192,382.473969 52.715092,383.089386 
	C59.209538,383.307922 65.699120,383.669037 72.193283,383.898224 
	C123.814125,385.719818 175.435547,387.525269 227.992569,389.415619 
M141.017578,91.448029 
	C144.676834,89.169472 148.336090,86.890907 152.398315,84.361427 
	C135.331345,75.608383 122.620285,62.703678 113.642830,45.593445 
	C104.739235,63.002785 91.886887,75.609764 74.850174,84.499626 
	C91.961723,93.377159 104.764748,106.049431 113.652115,123.365753 
	C120.368431,110.657623 129.053665,100.089684 141.017578,91.448029 
M337.445007,443.004730 
	C346.232788,449.741608 353.082031,458.154755 358.811493,468.355286 
	C366.544037,453.982117 377.473145,443.436340 391.550842,435.458771 
	C377.124207,427.665497 366.656158,416.775269 358.708801,402.872162 
	C350.829773,417.217224 340.047943,427.753448 326.287079,435.417389 
	C330.004089,437.914093 333.451630,440.229797 337.445007,443.004730 
z"/>
<path fill="#73E0CE" opacity="1.000000" stroke="none" 
	d="
M227.524673,389.375671 
	C175.435547,387.525269 123.814125,385.719818 72.193283,383.898224 
	C65.699120,383.669037 59.209538,383.307922 52.715092,383.089386 
	C34.428192,382.473969 21.074808,368.976379 21.025524,350.678528 
	C20.932608,316.181732 20.997711,281.684509 20.997425,247.187454 
	C20.997225,223.022858 20.970461,198.858231 21.006020,174.693695 
	C21.035145,154.900513 34.207836,141.570847 54.072186,141.034164 
	C67.730476,140.665176 81.389526,140.268463 95.038872,139.670502 
	C97.877220,139.546143 99.116432,140.334671 100.013641,143.048920 
	C102.590446,150.844360 107.082993,154.185989 114.089455,154.064163 
	C120.743988,153.948456 125.272736,150.462418 127.517685,142.839111 
	C128.547348,139.342636 130.149704,138.253479 133.729782,138.145096 
	C176.699966,136.844284 219.664444,135.355637 262.631805,133.959671 
	C271.978027,133.656036 274.292175,132.038101 277.025696,123.270119 
	C284.847748,122.775932 292.714813,122.278893 300.466583,121.789146 
	C302.825867,129.456833 305.799927,132.170563 311.307495,132.019257 
	C316.882019,131.866119 319.753693,128.836105 321.547211,121.121292 
	C328.833374,121.121292 336.149475,121.121292 343.935699,121.121292 
	C345.698975,130.123352 352.095642,131.001740 360.106659,130.650101 
	C393.231567,129.196167 426.371399,128.011139 459.516052,127.106308 
	C478.798157,126.579926 492.974701,140.893387 492.986359,160.308136 
	C493.027191,228.302277 493.022614,296.296448 492.989838,364.290619 
	C492.980103,384.439240 478.554718,398.471466 458.294983,397.838623 
	C432.315033,397.027100 406.341339,395.999268 380.373047,394.876495 
	C378.834381,394.809967 376.729279,393.414093 375.996216,392.043823 
	C374.287354,388.849640 373.190125,385.316742 371.962036,381.879272 
	C369.619965,375.323761 365.032471,371.874969 358.578827,371.942291 
	C352.374268,372.007019 347.967468,375.376709 345.689362,381.798187 
	C341.582458,393.374603 341.578918,393.477081 329.398773,393.057678 
	C295.594971,391.893616 261.794403,390.636169 227.524673,389.375671 
M462.399170,299.068054 
	C462.292603,288.568878 462.260864,278.068207 462.049103,267.571136 
	C461.937073,262.017059 458.436676,258.638641 453.347260,258.780396 
	C448.220245,258.923218 445.060059,262.522156 445.110565,268.627533 
	C445.259460,286.626068 445.536743,304.623505 445.740143,322.621643 
	C445.753357,323.788879 445.566681,324.958344 445.397949,327.062714 
	C443.858307,324.876007 442.902496,323.540039 441.968658,322.188934 
	C428.620453,302.875549 415.224701,283.594696 401.970734,264.216858 
	C399.237915,260.221313 395.938965,257.744720 391.112427,259.283081 
	C386.263397,260.828613 385.070038,264.869324 385.092499,269.633728 
	C385.181274,288.466187 385.128418,307.299286 385.128662,326.132172 
	C385.128784,334.965302 385.049194,343.799408 385.160309,352.631165 
	C385.231934,358.322479 388.035950,361.645233 392.742828,362.079742 
	C398.532227,362.614197 402.089081,359.119629 402.113861,352.544373 
	C402.179840,335.045044 402.132202,317.545288 402.150482,300.045715 
	C402.151886,298.687958 402.314728,297.330414 402.455933,295.147400 
	C403.983582,297.252747 404.982086,298.572113 405.921661,299.932220 
	C418.602814,318.289856 431.264740,336.660797 443.957245,355.010559 
	C447.854919,360.645447 451.746643,362.400055 456.464294,360.789673 
	C460.726898,359.334686 463.004425,355.329620 462.950867,348.998901 
	C462.812714,332.666840 462.606812,316.335327 462.399170,299.068054 
M311.436188,362.170776 
	C343.260620,360.872192 365.602020,334.152283 361.078918,302.799072 
	C357.159119,275.628113 333.265442,256.690582 306.223846,259.322296 
	C277.076385,262.158966 257.046021,284.871521 258.701477,313.208252 
	C260.335327,341.175171 281.610565,361.304596 311.436188,362.170776 
M208.218491,264.173492 
	C206.831314,263.614014 205.462250,263.003632 204.054306,262.502502 
	C169.452423,250.186798 129.670288,273.562042 134.306549,317.674774 
	C136.798355,341.383850 157.759384,360.661957 180.731049,362.039124 
	C206.670792,363.594238 228.516708,348.475098 235.142685,324.381958 
	C241.723145,300.454285 230.878128,275.754395 208.218491,264.173492 
M115.484055,335.817413 
	C116.964096,322.502655 109.908897,311.261780 95.742249,305.025238 
	C87.536461,301.412811 79.143387,298.220093 70.792618,294.945526 
	C67.238586,293.551941 64.068596,291.292572 64.846085,287.418701 
	C65.494865,284.186127 67.511475,280.642029 70.017860,278.545959 
	C72.186386,276.732391 75.861694,276.280029 78.929047,276.068604 
	C86.590096,275.540497 93.109962,278.792725 99.317299,282.962219 
	C103.676422,285.890289 108.448494,285.051575 111.247658,281.248566 
	C113.984818,277.529846 113.600922,272.644867 109.650742,269.680298 
	C96.842690,260.067963 82.726646,255.936020 66.970543,261.094482 
	C55.289219,264.918915 47.970062,274.747711 47.598644,286.328064 
	C47.237961,297.573792 53.120411,305.900970 65.082230,310.953644 
	C73.952530,314.700470 83.182503,317.754333 91.654022,322.245361 
	C101.565865,327.499939 101.100342,337.467041 91.164330,342.727356 
	C88.741592,344.010010 85.847313,344.804474 83.107918,345.014099 
	C73.286980,345.765594 64.863266,342.521820 57.759815,335.603485 
	C53.569473,331.522339 48.403957,331.569824 44.952320,335.321533 
	C41.671108,338.888000 41.984337,343.759033 45.998978,347.746216 
	C57.377224,359.046692 71.254417,363.601807 87.008362,361.830872 
	C101.202400,360.235260 112.386841,349.905670 115.484055,335.817413 
M269.928833,200.577698 
	C268.492981,193.065109 267.114899,185.540863 265.604126,178.043365 
	C264.236176,171.254654 261.065521,168.080933 255.807724,167.974503 
	C250.631546,167.869720 247.591934,170.566254 245.676987,177.101044 
	C243.301163,185.208588 240.986023,193.333923 238.402618,202.290802 
	C237.691574,200.379440 237.183319,199.212097 236.818985,198.001465 
	C234.520950,190.365219 232.356873,182.686966 229.941910,175.088257 
	C228.364792,170.125793 224.521469,167.537018 219.778229,168.015274 
	C214.844482,168.512756 212.017288,171.457092 211.006912,176.204254 
	C210.418594,178.968292 209.941483,181.756622 209.444107,184.539337 
	C206.840042,199.108582 204.121750,213.659012 201.702911,228.259033 
	C200.590378,234.974350 206.284134,240.272629 212.266190,237.798859 
	C214.825821,236.740341 217.348175,233.467438 218.146103,230.698822 
	C220.022415,224.188507 220.850571,217.376099 222.331329,209.465485 
	C224.766388,217.584824 226.843857,224.538589 228.938553,231.487152 
	C230.355515,236.187561 233.577240,238.864410 238.435272,238.842285 
	C243.325958,238.820023 246.432434,235.941864 247.869720,231.338943 
	C248.859741,228.168396 249.681870,224.945755 250.609192,221.755173 
	C251.591125,218.376633 252.608765,215.008484 253.610809,211.635788 
	C255.907898,218.222321 256.674286,224.807602 258.583649,231.042892 
	C259.415894,233.760834 262.225098,236.928574 264.812408,237.742050 
	C267.159119,238.479858 271.492859,237.128021 273.001648,235.184494 
	C274.723602,232.966354 275.068115,228.965851 274.643250,225.931473 
	C273.492126,217.710602 271.616730,209.591141 269.928833,200.577698 
M327.929138,209.500000 
	C327.931366,216.331650 327.577026,223.191574 328.115326,229.980713 
	C328.323822,232.610352 329.948700,236.030136 332.031677,237.354004 
	C334.100403,238.668839 338.311768,238.906982 340.210052,237.608887 
	C342.531464,236.021393 344.511902,232.424805 344.725830,229.554337 
	C345.323364,221.537033 344.933685,213.446167 344.933685,205.384354 
	C352.455109,214.664093 359.064453,224.166275 365.617645,233.707077 
	C368.301117,237.613953 371.966187,239.177902 376.431152,237.830765 
	C380.763428,236.523621 382.861023,233.020462 382.833221,228.669434 
	C382.720459,211.008820 382.516174,193.347107 382.113525,175.691101 
	C382.002625,170.827744 378.186523,167.748871 373.496674,167.912247 
	C368.608765,168.082535 365.378662,171.637589 365.295715,177.352905 
	C365.175995,185.602188 365.265076,193.854523 365.265076,202.882034 
	C363.958649,201.138916 362.968597,199.901321 362.067474,198.602051 
	C356.090515,189.984039 350.099640,181.375366 344.184174,172.715240 
	C341.680756,169.050308 338.429016,166.969757 334.007141,168.309250 
	C329.376068,169.712128 327.824799,173.304977 327.888062,178.007874 
	C328.024780,188.170258 327.929504,198.335770 327.929138,209.500000 
M120.426460,186.056000 
	C119.820099,187.423721 119.150070,188.767120 118.616875,190.162796 
	C109.967033,212.803864 124.489342,240.919769 155.050034,238.617142 
	C172.231323,237.322586 185.203979,223.445312 186.849533,206.564453 
	C188.418411,190.470078 178.313019,175.082321 162.699661,169.790787 
	C146.861862,164.423172 129.811722,170.790619 120.426460,186.056000 
M435.941315,208.482437 
	C440.022339,210.078735 444.103333,211.675034 448.195679,213.275757 
	C445.394562,219.961990 439.766510,223.083130 432.288422,221.522827 
	C424.562592,219.910873 419.456818,215.492310 417.737823,207.603317 
	C416.102295,200.097351 418.020752,193.584412 424.108704,188.876282 
	C430.310242,184.080383 437.239746,183.623383 444.312714,187.136566 
	C451.017151,190.466690 455.532715,189.760391 458.096100,184.904205 
	C460.653503,180.059311 458.675934,175.393845 452.277527,172.065491 
	C439.366943,165.349564 426.839203,166.673965 415.001343,174.667023 
	C401.093231,184.057953 396.302734,201.719055 403.028595,217.680756 
	C409.368622,232.726761 425.788788,241.198959 442.387604,237.988602 
	C457.265045,235.111176 466.980072,222.175949 467.198944,204.953003 
	C467.284363,198.232056 464.318573,195.057465 457.694000,194.938354 
	C453.195984,194.857483 448.694519,194.866379 444.196075,194.933060 
	C435.969604,195.054962 432.674316,199.982971 435.941315,208.482437 
M78.203552,221.867294 
	C69.044563,221.469864 62.758450,217.422150 60.147171,210.240540 
	C57.401474,202.689255 59.467136,194.174011 65.234032,189.271164 
	C71.273949,184.136154 78.993141,183.609985 87.125015,187.778992 
	C92.426537,190.496933 97.323410,189.487106 99.766914,185.172012 
	C102.237381,180.809311 100.651184,176.165222 95.598785,172.968491 
	C82.956451,164.969467 65.570854,166.586395 53.843666,176.851837 
	C42.037521,187.186432 38.349319,203.766678 44.746170,217.749680 
	C51.051571,231.532791 66.961334,240.721954 81.263733,238.766266 
	C88.600281,237.763062 94.934944,234.667374 99.947609,229.154434 
	C103.745193,224.977783 103.762192,220.161209 100.167397,216.688416 
	C96.720940,213.358902 92.318405,213.718857 88.029808,216.957993 
	C85.340515,218.989166 82.043098,220.215179 78.203552,221.867294 
M294.349396,169.694397 
	C293.236053,172.341812 291.204041,174.973572 291.158630,177.639175 
	C290.866302,194.791245 290.973511,211.950821 291.027954,229.107697 
	C291.046478,234.947266 294.500824,238.846298 299.428406,238.906097 
	C304.365723,238.965988 307.962311,235.056137 307.981842,229.289505 
	C308.039917,212.132660 308.055267,194.975281 307.980988,177.818558 
	C307.945312,169.581573 302.828461,166.273132 294.349396,169.694397 
z"/>
<path fill="#013220" opacity="1.000000" stroke="none" 
	d="
M140.736267,91.670227 
	C129.053665,100.089684 120.368431,110.657623 113.652115,123.365753 
	C104.764748,106.049431 91.961723,93.377159 74.850174,84.499626 
	C91.886887,75.609764 104.739235,63.002785 113.642830,45.593445 
	C122.620285,62.703678 135.331345,75.608383 152.398315,84.361427 
	C148.336090,86.890907 144.676834,89.169472 140.736267,91.670227 
z"/>
<path fill="#013220" opacity="1.000000" stroke="none" 
	d="
M337.172119,442.775116 
	C333.451630,440.229797 330.004089,437.914093 326.287079,435.417389 
	C340.047943,427.753448 350.829773,417.217224 358.708801,402.872162 
	C366.656158,416.775269 377.124207,427.665497 391.550842,435.458771 
	C377.473145,443.436340 366.544037,453.982117 358.811493,468.355286 
	C353.082031,458.154755 346.232788,449.741608 337.172119,442.775116 
z"/>
<path fill="#013220" opacity="1.000000" stroke="none" 
	d="
M462.413544,299.535828 
	C462.606812,316.335327 462.812714,332.666840 462.950867,348.998901 
	C463.004425,355.329620 460.726898,359.334686 456.464294,360.789673 
	C451.746643,362.400055 447.854919,360.645447 443.957245,355.010559 
	C431.264740,336.660797 418.602814,318.289856 405.921661,299.932220 
	C404.982086,298.572113 403.983582,297.252747 402.455933,295.147400 
	C402.314728,297.330414 402.151886,298.687958 402.150482,300.045715 
	C402.132202,317.545288 402.179840,335.045044 402.113861,352.544373 
	C402.089081,359.119629 398.532227,362.614197 392.742828,362.079742 
	C388.035950,361.645233 385.231934,358.322479 385.160309,352.631165 
	C385.049194,343.799408 385.128784,334.965302 385.128662,326.132172 
	C385.128418,307.299286 385.181274,288.466187 385.092499,269.633728 
	C385.070038,264.869324 386.263397,260.828613 391.112427,259.283081 
	C395.938965,257.744720 399.237915,260.221313 401.970734,264.216858 
	C415.224701,283.594696 428.620453,302.875549 441.968658,322.188934 
	C442.902496,323.540039 443.858307,324.876007 445.397949,327.062714 
	C445.566681,324.958344 445.753357,323.788879 445.740143,322.621643 
	C445.536743,304.623505 445.259460,286.626068 445.110565,268.627533 
	C445.060059,262.522156 448.220245,258.923218 453.347260,258.780396 
	C458.436676,258.638641 461.937073,262.017059 462.049103,267.571136 
	C462.260864,278.068207 462.292603,288.568878 462.413544,299.535828 
z"/>
<path fill="#013220" opacity="1.000000" stroke="none" 
	d="
M310.958832,362.185150 
	C281.610565,361.304596 260.335327,341.175171 258.701477,313.208252 
	C257.046021,284.871521 277.076385,262.158966 306.223846,259.322296 
	C333.265442,256.690582 357.159119,275.628113 361.078918,302.799072 
	C365.602020,334.152283 343.260620,360.872192 310.958832,362.185150 
M278.252289,297.021240 
	C277.488342,303.055786 275.664246,309.178162 276.155640,315.108704 
	C277.742493,334.260162 295.802704,347.639618 315.180756,344.778229 
	C334.641174,341.904724 347.834778,324.057648 344.416443,305.230957 
	C341.586914,289.647186 330.043823,278.299744 314.856262,276.171875 
	C299.869843,274.072174 285.770966,281.926971 278.252289,297.021240 
z"/>
<path fill="#013220" opacity="1.000000" stroke="none" 
	d="
M208.545685,264.362610 
	C230.878128,275.754395 241.723145,300.454285 235.142685,324.381958 
	C228.516708,348.475098 206.670792,363.594238 180.731049,362.039124 
	C157.759384,360.661957 136.798355,341.383850 134.306549,317.674774 
	C129.670288,273.562042 169.452423,250.186798 204.054306,262.502502 
	C205.462250,263.003632 206.831314,263.614014 208.545685,264.362610 
M197.245956,278.017273 
	C180.546555,272.607056 163.843155,278.693451 155.369949,293.276031 
	C147.390671,307.008514 150.231476,325.792267 161.874207,336.283112 
	C174.014572,347.222351 193.268509,348.038361 206.614273,338.151794 
	C225.457336,324.192963 226.048111,290.205078 197.245956,278.017273 
z"/>
<path fill="#013220" opacity="1.000000" stroke="none" 
	d="
M115.388840,336.226562 
	C112.386841,349.905670 101.202400,360.235260 87.008362,361.830872 
	C71.254417,363.601807 57.377224,359.046692 45.998978,347.746216 
	C41.984337,343.759033 41.671108,338.888000 44.952320,335.321533 
	C48.403957,331.569824 53.569473,331.522339 57.759815,335.603485 
	C64.863266,342.521820 73.286980,345.765594 83.107918,345.014099 
	C85.847313,344.804474 88.741592,344.010010 91.164330,342.727356 
	C101.100342,337.467041 101.565865,327.499939 91.654022,322.245361 
	C83.182503,317.754333 73.952530,314.700470 65.082230,310.953644 
	C53.120411,305.900970 47.237961,297.573792 47.598644,286.328064 
	C47.970062,274.747711 55.289219,264.918915 66.970543,261.094482 
	C82.726646,255.936020 96.842690,260.067963 109.650742,269.680298 
	C113.600922,272.644867 113.984818,277.529846 111.247658,281.248566 
	C108.448494,285.051575 103.676422,285.890289 99.317299,282.962219 
	C93.109962,278.792725 86.590096,275.540497 78.929047,276.068604 
	C75.861694,276.280029 72.186386,276.732391 70.017860,278.545959 
	C67.511475,280.642029 65.494865,284.186127 64.846085,287.418701 
	C64.068596,291.292572 67.238586,293.551941 70.792618,294.945526 
	C79.143387,298.220093 87.536461,301.412811 95.742249,305.025238 
	C109.908897,311.261780 116.964096,322.502655 115.388840,336.226562 
z"/>
<path fill="#013220" opacity="1.000000" stroke="none" 
	d="
M269.978699,201.004578 
	C271.616730,209.591141 273.492126,217.710602 274.643250,225.931473 
	C275.068115,228.965851 274.723602,232.966354 273.001648,235.184494 
	C271.492859,237.128021 267.159119,238.479858 264.812408,237.742050 
	C262.225098,236.928574 259.415894,233.760834 258.583649,231.042892 
	C256.674286,224.807602 255.907898,218.222321 253.610809,211.635788 
	C252.608765,215.008484 251.591125,218.376633 250.609192,221.755173 
	C249.681870,224.945755 248.859741,228.168396 247.869720,231.338943 
	C246.432434,235.941864 243.325958,238.820023 238.435272,238.842285 
	C233.577240,238.864410 230.355515,236.187561 228.938553,231.487152 
	C226.843857,224.538589 224.766388,217.584824 222.331329,209.465485 
	C220.850571,217.376099 220.022415,224.188507 218.146103,230.698822 
	C217.348175,233.467438 214.825821,236.740341 212.266190,237.798859 
	C206.284134,240.272629 200.590378,234.974350 201.702911,228.259033 
	C204.121750,213.659012 206.840042,199.108582 209.444107,184.539337 
	C209.941483,181.756622 210.418594,178.968292 211.006912,176.204254 
	C212.017288,171.457092 214.844482,168.512756 219.778229,168.015274 
	C224.521469,167.537018 228.364792,170.125793 229.941910,175.088257 
	C232.356873,182.686966 234.520950,190.365219 236.818985,198.001465 
	C237.183319,199.212097 237.691574,200.379440 238.402618,202.290802 
	C240.986023,193.333923 243.301163,185.208588 245.676987,177.101044 
	C247.591934,170.566254 250.631546,167.869720 255.807724,167.974503 
	C261.065521,168.080933 264.236176,171.254654 265.604126,178.043365 
	C267.114899,185.540863 268.492981,193.065109 269.978699,201.004578 
z"/>
<path fill="#013220" opacity="1.000000" stroke="none" 
	d="
M327.929138,209.000000 
	C327.929504,198.335770 328.024780,188.170258 327.888062,178.007874 
	C327.824799,173.304977 329.376068,169.712128 334.007141,168.309250 
	C338.429016,166.969757 341.680756,169.050308 344.184174,172.715240 
	C350.099640,181.375366 356.090515,189.984039 362.067474,198.602051 
	C362.968597,199.901321 363.958649,201.138916 365.265076,202.882034 
	C365.265076,193.854523 365.175995,185.602188 365.295715,177.352905 
	C365.378662,171.637589 368.608765,168.082535 373.496674,167.912247 
	C378.186523,167.748871 382.002625,170.827744 382.113525,175.691101 
	C382.516174,193.347107 382.720459,211.008820 382.833221,228.669434 
	C382.861023,233.020462 380.763428,236.523621 376.431152,237.830765 
	C371.966187,239.177902 368.301117,237.613953 365.617645,233.707077 
	C359.064453,224.166275 352.455109,214.664093 344.933685,205.384354 
	C344.933685,213.446167 345.323364,221.537033 344.725830,229.554337 
	C344.511902,232.424805 342.531464,236.021393 340.210052,237.608887 
	C338.311768,238.906982 334.100403,238.668839 332.031677,237.354004 
	C329.948700,236.030136 328.323822,232.610352 328.115326,229.980713 
	C327.577026,223.191574 327.931366,216.331650 327.929138,209.000000 
z"/>
<path fill="#013220" opacity="1.000000" stroke="none" 
	d="
M120.626106,185.742386 
	C129.811722,170.790619 146.861862,164.423172 162.699661,169.790787 
	C178.313019,175.082321 188.418411,190.470078 186.849533,206.564453 
	C185.203979,223.445312 172.231323,237.322586 155.050034,238.617142 
	C124.489342,240.919769 109.967033,212.803864 118.616875,190.162796 
	C119.150070,188.767120 119.820099,187.423721 120.626106,185.742386 
M159.461288,186.767059 
	C152.024231,183.536880 145.049011,184.337357 139.020599,189.773972 
	C133.649750,194.617584 131.786499,200.868073 133.565628,207.933441 
	C135.616348,216.077423 142.850662,221.767197 150.978806,221.912827 
	C159.193451,222.060028 166.589111,216.853394 168.886337,209.305710 
	C171.618896,200.327728 168.513809,192.395615 159.461288,186.767059 
z"/>
<path fill="#013220" opacity="1.000000" stroke="none" 
	d="
M435.717224,208.168228 
	C432.674316,199.982971 435.969604,195.054962 444.196075,194.933060 
	C448.694519,194.866379 453.195984,194.857483 457.694000,194.938354 
	C464.318573,195.057465 467.284363,198.232056 467.198944,204.953003 
	C466.980072,222.175949 457.265045,235.111176 442.387604,237.988602 
	C425.788788,241.198959 409.368622,232.726761 403.028595,217.680756 
	C396.302734,201.719055 401.093231,184.057953 415.001343,174.667023 
	C426.839203,166.673965 439.366943,165.349564 452.277527,172.065491 
	C458.675934,175.393845 460.653503,180.059311 458.096100,184.904205 
	C455.532715,189.760391 451.017151,190.466690 444.312714,187.136566 
	C437.239746,183.623383 430.310242,184.080383 424.108704,188.876282 
	C418.020752,193.584412 416.102295,200.097351 417.737823,207.603317 
	C419.456818,215.492310 424.562592,219.910873 432.288422,221.522827 
	C439.766510,223.083130 445.394562,219.961990 448.195679,213.275757 
	C444.103333,211.675034 440.022339,210.078735 435.717224,208.168228 
z"/>
<path fill="#013220" opacity="1.000000" stroke="none" 
	d="
M78.611038,221.834869 
	C82.043098,220.215179 85.340515,218.989166 88.029808,216.957993 
	C92.318405,213.718857 96.720940,213.358902 100.167397,216.688416 
	C103.762192,220.161209 103.745193,224.977783 99.947609,229.154434 
	C94.934944,234.667374 88.600281,237.763062 81.263733,238.766266 
	C66.961334,240.721954 51.051571,231.532791 44.746170,217.749680 
	C38.349319,203.766678 42.037521,187.186432 53.843666,176.851837 
	C65.570854,166.586395 82.956451,164.969467 95.598785,172.968491 
	C100.651184,176.165222 102.237381,180.809311 99.766914,185.172012 
	C97.323410,189.487106 92.426537,190.496933 87.125015,187.778992 
	C78.993141,183.609985 71.273949,184.136154 65.234032,189.271164 
	C59.467136,194.174011 57.401474,202.689255 60.147171,210.240540 
	C62.758450,217.422150 69.044563,221.469864 78.611038,221.834869 
z"/>
<path fill="#013220" opacity="1.000000" stroke="none" 
	d="
M294.664978,169.454529 
	C302.828461,166.273132 307.945312,169.581573 307.980988,177.818558 
	C308.055267,194.975281 308.039917,212.132660 307.981842,229.289505 
	C307.962311,235.056137 304.365723,238.965988 299.428406,238.906097 
	C294.500824,238.846298 291.046478,234.947266 291.027954,229.107697 
	C290.973511,211.950821 290.866302,194.791245 291.158630,177.639175 
	C291.204041,174.973572 293.236053,172.341812 294.664978,169.454529 
z"/>
<path fill="#73E0CE" opacity="1.000000" stroke="none" 
	d="
M278.444000,296.686157 
	C285.770966,281.926971 299.869843,274.072174 314.856262,276.171875 
	C330.043823,278.299744 341.586914,289.647186 344.416443,305.230957 
	C347.834778,324.057648 334.641174,341.904724 315.180756,344.778229 
	C295.802704,347.639618 277.742493,334.260162 276.155640,315.108704 
	C275.664246,309.178162 277.488342,303.055786 278.444000,296.686157 
z"/>
<path fill="#73E1CE" opacity="1.000000" stroke="none" 
	d="
M197.623276,278.131470 
	C226.048111,290.205078 225.457336,324.192963 206.614273,338.151794 
	C193.268509,348.038361 174.014572,347.222351 161.874207,336.283112 
	C150.231476,325.792267 147.390671,307.008514 155.369949,293.276031 
	C163.843155,278.693451 180.546555,272.607056 197.623276,278.131470 
z"/>
<path fill="#72DECC" opacity="1.000000" stroke="none" 
	d="
M159.818130,186.909546 
	C168.513809,192.395615 171.618896,200.327728 168.886337,209.305710 
	C166.589111,216.853394 159.193451,222.060028 150.978806,221.912827 
	C142.850662,221.767197 135.616348,216.077423 133.565628,207.933441 
	C131.786499,200.868073 133.649750,194.617584 139.020599,189.773972 
	C145.049011,184.337357 152.024231,183.536880 159.818130,186.909546 
z"/>
</svg>